# xmcd
#
# Track frame offsets:
#	150
#	20322
#	32837
#	45930
#	58035
#	72500
#	94114
#	115450
#	128720
#	151123
#	172220
#
# Disc length: 2543 seconds
#
# Revision: 1
# Processed by: cddbd v1.5.2PL0 Copyright (c) Steve Scherf et al.
# Submitted via: audiograbber 1.83.01
#
DISCID=8f09ed0b
DTITLE=Sonlight - A New Beginning
DYEAR=2012
DGENRE=Gospel
TTITLE0=Let Me Tell Ya
TTITLE1=How Could He Love Me Like That
TTITLE2=Consider The Lilies
TTITLE3=When He Was On The Cross
TTITLE4=Send Me One Soul
TTITLE5=That Was The Day
TTITLE6=Why Me Lord
TTITLE7=Renew The Face Of The Earth
TTITLE8=Lamb Of God (Grant Us Peace)
TTITLE9=What If I'm Right
TTITLE10=You Raise Me Up
EXTD=
EXTT0=
EXTT1=
EXTT2=
EXTT3=
EXTT4=
EXTT5=
EXTT6=
EXTT7=
EXTT8=
EXTT9=
EXTT10=
PLAYORDER=
